<svg xmlns="http://www.w3.org/2000/svg">
<symbol id="layers" viewBox="0 0 24 24" fill="none" stroke="currentColor" stroke-width="1.75" stroke-linecap="round" stroke-linejoin="round"><path d="m12.83 2.18a2 2 0 0 0-1.66 0L2.6 6.08a1 1 0 0 0 0 1.83l8.58 3.91a2 2 0 0 0 1.66 0l8.58-3.9a1 1 0 0 0 0-1.83Z"/><path d="m22 12.65-9.17 4.16a2 2 0 0 1-1.66 0L2 12.65"/><path d="m22 17.65-9.17 4.16a2 2 0 0 1-1.66 0L2 17.65"/></symbol>
<symbol id="briefcase" viewBox="0 0 24 24" fill="none" stroke="currentColor" stroke-width="1.75" stroke-linecap="round" stroke-linejoin="round"><path d="M16 20V4a2 2 0 0 0-2-2h-4a2 2 0 0 0-2 2v16"/><rect width="20" height="14" x="2" y="6" rx="2"/></symbol>
<symbol id="message" viewBox="0 0 24 24" fill="none" stroke="currentColor" stroke-width="1.75" stroke-linecap="round" stroke-linejoin="round"><path d="M21 15a2 2 0 0 1-2 2H7l-4 4V5a2 2 0 0 1 2-2h14a2 2 0 0 1 2 2z"/></symbol>
<symbol id="wrench" viewBox="0 0 24 24" fill="none" stroke="currentColor" stroke-width="1.75" stroke-linecap="round" stroke-linejoin="round"><path d="M14.7 6.3a1 1 0 0 0 0 1.4l1.6 1.6a1 1 0 0 0 1.4 0l3.77-3.77a6 6 0 0 1-7.94 7.94l-6.91 6.91a2.12 2.12 0 0 1-3-3l6.91-6.91a6 6 0 0 1 7.94-7.94l-3.76 3.76z"/></symbol>
<symbol id="activity" viewBox="0 0 24 24" fill="none" stroke="currentColor" stroke-width="1.75" stroke-linecap="round" stroke-linejoin="round"><path d="M22 12h-4l-3 9L9 3l-3 9H2"/></symbol>
<symbol id="search" viewBox="0 0 24 24" fill="none" stroke="currentColor" stroke-width="1.75" stroke-linecap="round" stroke-linejoin="round"><circle cx="11" cy="11" r="8"/><path d="m21 21-4.3-4.3"/></symbol>
<symbol id="library" viewBox="0 0 24 24" fill="none" stroke="currentColor" stroke-width="1.75" stroke-linecap="round" stroke-linejoin="round"><path d="m16 6 4 14"/><path d="M12 6v14"/><path d="M8 8v12"/><path d="M4 4v16"/></symbol>
<symbol id="book" viewBox="0 0 24 24" fill="none" stroke="currentColor" stroke-width="1.75" stroke-linecap="round" stroke-linejoin="round"><path d="M2 3h6a4 4 0 0 1 4 4v14a3 3 0 0 0-3-3H2z"/><path d="M22 3h-6a4 4 0 0 0-4 4v14a3 3 0 0 1 3-3h7z"/></symbol>
<symbol id="file" viewBox="0 0 24 24" fill="none" stroke="currentColor" stroke-width="1.75" stroke-linecap="round" stroke-linejoin="round"><path d="M15 2H6a2 2 0 0 0-2 2v16a2 2 0 0 0 2 2h12a2 2 0 0 0 2-2V7Z"/><path d="M14 2v4a2 2 0 0 0 2 2h4"/><path d="M16 13H8"/><path d="M16 17H8"/><path d="M10 9H8"/></symbol>
<symbol id="route" viewBox="0 0 24 24" fill="none" stroke="currentColor" stroke-width="1.75" stroke-linecap="round" stroke-linejoin="round"><circle cx="6" cy="19" r="3"/><path d="M9 19h8.5a3.5 3.5 0 0 0 0-7h-11a3.5 3.5 0 0 1 0-7H15"/><circle cx="18" cy="5" r="3"/></symbol>
<symbol id="database" viewBox="0 0 24 24" fill="none" stroke="currentColor" stroke-width="1.75" stroke-linecap="round" stroke-linejoin="round"><ellipse cx="12" cy="5" rx="9" ry="3"/><path d="M3 5v14a9 3 0 0 0 18 0V5"/><path d="M3 12a9 3 0 0 0 18 0"/></symbol>
<symbol id="cap" viewBox="0 0 24 24" fill="none" stroke="currentColor" stroke-width="1.75" stroke-linecap="round" stroke-linejoin="round"><path d="M22 10 12 5 2 10l10 5 10-5z"/><path d="M6 12v5c3 3 9 3 12 0v-5"/><path d="M22 10v6"/></symbol>
<symbol id="cards" viewBox="0 0 24 24" fill="none" stroke="currentColor" stroke-width="1.75" stroke-linecap="round" stroke-linejoin="round"><rect width="16" height="14" x="2" y="7" rx="2"/><path d="M6 3h14a2 2 0 0 1 2 2v12"/></symbol>
<symbol id="clock" viewBox="0 0 24 24" fill="none" stroke="currentColor" stroke-width="1.75" stroke-linecap="round" stroke-linejoin="round"><circle cx="12" cy="12" r="10"/><path d="M12 6v6l4 2"/></symbol>
<symbol id="printer" viewBox="0 0 24 24" fill="none" stroke="currentColor" stroke-width="1.75" stroke-linecap="round" stroke-linejoin="round"><path d="M6 9V2h12v7"/><path d="M6 18H4a2 2 0 0 1-2-2v-5a2 2 0 0 1 2-2h16a2 2 0 0 1 2 2v5a2 2 0 0 1-2 2h-2"/><rect width="12" height="8" x="6" y="14"/></symbol>
<symbol id="compass" viewBox="0 0 24 24" fill="none" stroke="currentColor" stroke-width="1.75" stroke-linecap="round" stroke-linejoin="round"><circle cx="12" cy="12" r="10"/><path d="m16.24 7.76-2.12 6.36-6.36 2.12 2.12-6.36z"/></symbol>
<symbol id="flask" viewBox="0 0 24 24" fill="none" stroke="currentColor" stroke-width="1.75" stroke-linecap="round" stroke-linejoin="round"><path d="M9 3h6"/><path d="M10 3v6.5L4.5 19a1.5 1.5 0 0 0 1.3 2h12.4a1.5 1.5 0 0 0 1.3-2L14 9.5V3"/><path d="M7 15h10"/></symbol>
<symbol id="folder" viewBox="0 0 24 24" fill="none" stroke="currentColor" stroke-width="1.75" stroke-linecap="round" stroke-linejoin="round"><path d="M20 20a2 2 0 0 0 2-2V8a2 2 0 0 0-2-2h-7.9a2 2 0 0 1-1.69-.9L9.6 3.9A2 2 0 0 0 7.93 3H4a2 2 0 0 0-2 2v13a2 2 0 0 0 2 2Z"/></symbol>
<symbol id="download" viewBox="0 0 24 24" fill="none" stroke="currentColor" stroke-width="1.75" stroke-linecap="round" stroke-linejoin="round"><path d="M21 15v4a2 2 0 0 1-2 2H5a2 2 0 0 1-2-2v-4"/><path d="m7 10 5 5 5-5"/><path d="M12 15V3"/></symbol>
<symbol id="external" viewBox="0 0 24 24" fill="none" stroke="currentColor" stroke-width="1.75" stroke-linecap="round" stroke-linejoin="round"><path d="M15 3h6v6"/><path d="M10 14 21 3"/><path d="M18 13v6a2 2 0 0 1-2 2H5a2 2 0 0 1-2-2V8a2 2 0 0 1 2-2h6"/></symbol>
<symbol id="arrowLeft" viewBox="0 0 24 24" fill="none" stroke="currentColor" stroke-width="1.75" stroke-linecap="round" stroke-linejoin="round"><path d="m12 19-7-7 7-7"/><path d="M19 12H5"/></symbol>
<symbol id="check" viewBox="0 0 24 24" fill="none" stroke="currentColor" stroke-width="1.75" stroke-linecap="round" stroke-linejoin="round"><path d="M20 6 9 17l-5-5"/></symbol>
<symbol id="more" viewBox="0 0 24 24" fill="none" stroke="currentColor" stroke-width="1.75" stroke-linecap="round" stroke-linejoin="round"><circle cx="12" cy="12" r="1"/><circle cx="19" cy="12" r="1"/><circle cx="5" cy="12" r="1"/></symbol>
<symbol id="menu" viewBox="0 0 24 24" fill="none" stroke="currentColor" stroke-width="1.75" stroke-linecap="round" stroke-linejoin="round"><path d="M4 6h16"/><path d="M4 12h16"/><path d="M4 18h16"/></symbol>
<symbol id="x" viewBox="0 0 24 24" fill="none" stroke="currentColor" stroke-width="1.75" stroke-linecap="round" stroke-linejoin="round"><path d="M18 6 6 18"/><path d="m6 6 12 12"/></symbol>
<symbol id="offline" viewBox="0 0 24 24" fill="none" stroke="currentColor" stroke-width="1.75" stroke-linecap="round" stroke-linejoin="round"><path d="M12 2v13"/><path d="m7 10 5 5 5-5"/><path d="M5 21h14"/></symbol>
</svg>
